<?xml version="1.0" standalone="no"?>
<!DOCTYPE svg PUBLIC "-//W3C//DTD SVG 1.1//EN" "http://www.w3.org/Graphics/SVG/1.1/DTD/svg11.dtd" >
<svg xmlns="http://www.w3.org/2000/svg">
<metadata>
This is a custom SVG webfont generated by Font Squirrel.
Designer    : Jan Schmoeger/Paragraph
Foundry     : Jan Schmoeger/Paragraph
Foundry URL : www.myfonts.com
</metadata>
<defs>
<font id="webfontDQHphuDm" horiz-adv-x="540" >
<font-face units-per-em="1000" ascent="750" descent="-250" />
<missing-glyph horiz-adv-x="200" />
<glyph unicode=" "  horiz-adv-x="200" />
<glyph unicode="&#x09;" horiz-adv-x="200" />
<glyph unicode="&#xa0;" horiz-adv-x="200" />
<glyph unicode="!" horiz-adv-x="230" d="M50 0v130h130v-130h-130zM55 190v510h120v-510h-120z" />
<glyph unicode="&#x22;" horiz-adv-x="380" d="M160 700v-210h-120v210h120zM340 700v-210h-120v210h120z" />
<glyph unicode="#" horiz-adv-x="620" d="M30 390v110h120v200h120v-200h80v200h120v-200h120v-110h-120v-80h120v-110h-120v-200h-120v200h-80v-200h-120v200h-120v110h120v80h-120zM270 390v-80h80v80h-80z" />
<glyph unicode="$" horiz-adv-x="530" d="M380 185v5q0 25 -17.5 45.5t-42.5 26.5l-150 38q-63 16 -101.5 62t-38.5 118q0 76 49 128t126 52h5l10 90h100v-90h140v-170h-90l-10 60h-145q-32 0 -48.5 -17t-16.5 -43v-20q0 -20 14 -37.5t36 -22.5l160 -37q63 -14 101.5 -65t38.5 -118q0 -76 -52.5 -129t-127.5 -61 l-10 -90h-100v90h-160v170h90l10 -60h155q30 0 52.5 22t22.5 53z" />
<glyph unicode="%" horiz-adv-x="700" d="M30 550q0 62 44 106t106 44h455l-435 -700h-130l365 590h-111q6 -20 6 -40q0 -62 -44 -106t-106 -44t-106 44t-44 106zM370 150q0 62 44 106t106 44t106 -44t44 -106t-44 -106t-106 -44t-106 44t-44 106zM480 150q0 -16 12 -28t28 -12t28 12t12 28t-12 28t-28 12t-28 -12 t-12 -28zM140 550q0 -16 12 -28t28 -12t28 12t12 28t-12 28t-28 12t-28 -12t-12 -28z" />
<glyph unicode="&#x26;" horiz-adv-x="590" d="M30 210q0 96 70 150q-60 52 -60 146q0 82 54 138t136 56h250v-160h-90l-10 50h-150q-30 0 -50 -20t-20 -50v-30q0 -30 20 -50t50 -20h140l20 80h100v-80h80v-100l-80 -10v-210l60 -10v-90h-310q-87 0 -148.5 61.5t-61.5 148.5zM150 215v-10q0 -41 25.5 -68t64.5 -27h130 v200h-130q-39 0 -64.5 -27t-25.5 -68z" />
<glyph unicode="'" horiz-adv-x="200" d="M160 700v-210h-120v210h120z" />
<glyph unicode="(" horiz-adv-x="290" d="M160 190q0 -163 104 -299l26 -31h-120q-5 5 -14 15t-31.5 43.5t-39.5 69t-31 91t-14 111.5v230q0 163 104 299l26 31h120q-5 -5 -14 -15t-31.5 -43.5t-39.5 -69t-31 -91t-14 -111.5v-230z" />
<glyph unicode=")" horiz-adv-x="290" d="M130 190v230q0 163 -104 299l-26 31h120q5 -5 14 -15t31.5 -43.5t39.5 -69t31 -91t14 -111.5v-230q0 -163 -104 -299l-26 -31h-120q5 5 14 15t31.5 43.5t39.5 69t31 91t14 111.5z" />
<glyph unicode="*" horiz-adv-x="444" d="M424 507l-111 -32l74 -95l-100 -70l-65 98l-65 -98l-100 70l74 95l-111 32l37 113l110 -40l-4 120h120l-6 -120l110 40z" />
<glyph unicode="+" horiz-adv-x="560" d="M40 200v110h180v190h120v-190h180v-110h-180v-200h-120v200h-180z" />
<glyph unicode="," horiz-adv-x="210" d="M40 -120v250h130l-20 -250h-110z" />
<glyph unicode="-" horiz-adv-x="330" d="M40 200v110h250v-110h-250z" />
<glyph unicode="." horiz-adv-x="210" d="M40 0v130h130v-130h-130z" />
<glyph unicode="/" horiz-adv-x="400" d="M0 0l276 700h124l-276 -700h-124z" />
<glyph unicode="0" horiz-adv-x="550" d="M390 180v340q0 31 -20 50.5t-50 19.5h-90q-30 0 -50 -19.5t-20 -50.5v-340q0 -30 20 -50t50 -20h90q30 0 50 20t20 50zM510 510v-320q0 -78 -55.5 -134t-134.5 -56h-90q-79 0 -134.5 56t-55.5 134v320q0 78 55.5 134t134.5 56h90q79 0 134.5 -56t55.5 -134z" />
<glyph unicode="1" horiz-adv-x="300" d="M20 580v100l200 20v-600l60 -10v-90h-240v90l60 10v490z" />
<glyph unicode="2" horiz-adv-x="530" d="M500 515v-20q0 -58 -40 -109t-95 -66l-125 -35q-41 -12 -65.5 -41.5t-24.5 -73.5v-60h330v-110h-450v170q0 77 45.5 137t114.5 78l130 35q24 6 42 26t18 44v30q0 27 -21.5 48.5t-48.5 21.5h-150l-10 -60h-90v170h255q76 0 130.5 -55t54.5 -130z" />
<glyph unicode="3" horiz-adv-x="500" d="M340 490v30q0 30 -20.5 50t-49.5 20h-150l-10 -60h-90v170h250q81 0 135.5 -56.5t54.5 -133.5q0 -40 -15.5 -80t-44.5 -65q33 -25 51.5 -68t18.5 -87q0 -87 -60.5 -148.5t-149.5 -61.5h-240v110h240q39 0 64.5 25t25.5 65v20q0 40 -25.5 65t-64.5 25h-150v110h160 q27 0 48.5 21t21.5 49z" />
<glyph unicode="4" horiz-adv-x="545" d="M315 100v90h-315l275 510h135l-220 -400h125v180h120v-180h90v-110h-90v-90l60 -10v-90h-240v90z" />
<glyph unicode="5" horiz-adv-x="510" d="M160 590v-170h100q91 0 155.5 -60.5t64.5 -149.5t-64.5 -149.5t-155.5 -60.5h-220v110h220q45 0 72.5 24.5t27.5 65.5v20q0 41 -27.5 65.5t-72.5 24.5h-220v390h400v-170h-90l-10 60h-180z" />
<glyph unicode="6" d="M370 590h-130q-33 0 -56.5 -24.5t-23.5 -55.5v-90h140q87 0 148.5 -60.5t61.5 -149.5t-61.5 -149.5t-148.5 -60.5h-40q-89 0 -154.5 57.5t-65.5 142.5v310q0 78 60 134t140 56h230v-170h-90zM260 110h40q39 0 64.5 25t25.5 65v20q0 40 -25.5 65t-64.5 25h-140v-105 q0 -41 29 -68t71 -27z" />
<glyph unicode="7" horiz-adv-x="490" d="M20 700h470l-340 -700h-130l288 590h-188l-10 -60h-90v170z" />
<glyph unicode="8" horiz-adv-x="550" d="M230 700h90q82 0 136 -55t54 -135q0 -93 -59 -144q69 -63 69 -156q0 -87 -61.5 -148.5t-148.5 -61.5h-70q-87 0 -148.5 61.5t-61.5 148.5q0 93 69 156q-59 51 -59 144q0 80 54 135t136 55zM240 110h70q39 0 64.5 25t25.5 65v20q0 40 -25.5 65t-64.5 25h-70 q-39 0 -64.5 -25t-25.5 -65v-20q0 -40 25.5 -65t64.5 -25zM230 420h90q30 0 50 20t20 50v30q0 30 -20 50t-50 20h-90q-30 0 -50 -20t-20 -50v-30q0 -30 20 -50t50 -20z" />
<glyph unicode="9" d="M500 495v-290q0 -86 -61.5 -145.5t-148.5 -59.5h-220v110h220q40 0 65 26.5t25 68.5v65h-140q-88 0 -149 64t-61 151q0 88 60.5 151.5t149.5 63.5h45q87 0 151 -59.5t64 -145.5zM285 590h-45q-38 0 -64 -27t-26 -68v-25q0 -39 25.5 -64.5t64.5 -25.5h140v115q0 41 -27 68 t-68 27z" />
<glyph unicode=":" horiz-adv-x="210" d="M40 370v130h130v-130h-130zM40 0v130h130v-130h-130z" />
<glyph unicode=";" horiz-adv-x="210" d="M40 370v130h130v-130h-130zM40 -120v250h130l-20 -250h-110z" />
<glyph unicode="&#x3c;" horiz-adv-x="490" d="M20 210v80l440 230v-120l-290 -150l290 -150v-120z" />
<glyph unicode="=" horiz-adv-x="560" d="M40 290v110h480v-110h-480zM40 110v110h480v-110h-480z" />
<glyph unicode="&#x3e;" horiz-adv-x="490" d="M470 290v-80l-440 -230v120l290 150l-290 150v120z" />
<glyph unicode="?" horiz-adv-x="470" d="M35 0v130h130v-130h-130zM20 700h230q79 0 134.5 -55t55.5 -140q0 -66 -36 -119.5t-94 -65.5l-110 -23q-18 -4 -29 -18t-11 -34v-55h-120v55q0 57 33 99.5t87 55.5l110 26q21 5 35.5 23t14.5 41v30q0 30 -20.5 50t-49.5 20h-130l-10 -60h-90v170z" />
<glyph unicode="@" horiz-adv-x="730" d="M530 550v-85l-30 -5v-205h30q15 0 27.5 12.5t12.5 27.5v180q0 49 -31 82t-79 33h-190q-48 0 -79 -33t-31 -81v-216q0 -63 43.5 -106.5t106.5 -43.5h350v-110h-360q-107 0 -183.5 76.5t-76.5 183.5v220q0 91 65.5 155.5t157.5 64.5h204q92 0 157.5 -64.5t65.5 -155.5v-180 q0 -68 -41 -109t-109 -41h-190q-72 0 -111 36.5t-39 103.5v140q0 61 28.5 90.5t91.5 29.5h210zM315 430v-135q0 -40 40 -40h30v190h-55q-15 0 -15 -15z" />
<glyph unicode="A" horiz-adv-x="670" d="M470 100l-35 110h-201l-34 -110l60 -10v-90h-240v90l60 10l160 500l-60 10v90h220l190 -600l60 -10v-90h-240v90zM335 530l-66 -210h132z" />
<glyph unicode="B" horiz-adv-x="580" d="M540 520q0 -96 -80 -147q40 -26 65 -70t25 -98q0 -85 -62 -145t-148 -60h-320v90l60 10v500l-60 10v90h340q77 0 128.5 -52t51.5 -128zM200 430h140q33 0 56.5 23t23.5 57t-23.5 57t-56.5 23h-140v-160zM430 195v40q0 35 -27.5 60t-62.5 25h-140v-210h140q35 0 62.5 25 t27.5 60z" />
<glyph unicode="C" horiz-adv-x="500" d="M304 110h176v-110h-186q-106 0 -180 74t-74 179v262q0 77 54.5 131t131.5 54h254v-170h-90l-10 60h-144q-31 0 -53.5 -22t-22.5 -53v-265q0 -58 42.5 -99t101.5 -41z" />
<glyph unicode="D" horiz-adv-x="590" d="M20 610v90h340q78 0 134 -54.5t56 -130.5v-265q0 -105 -72 -177.5t-178 -72.5h-280v90l60 10v500zM350 590h-150v-480h90q57 0 98.5 41t41.5 99v265q0 31 -24.5 53t-55.5 22z" />
<glyph unicode="E" horiz-adv-x="530" d="M20 610v90h490v-170h-90l-10 60h-210v-160h170l10 40h90v-210h-90l-10 60h-170v-210h210l10 70h90v-180h-490v90l60 10v500z" />
<glyph unicode="F" horiz-adv-x="530" d="M20 610v90h490v-170h-90l-10 60h-210v-160h170l10 40h90v-210h-90l-10 60h-170v-220l60 -10v-90h-240v90l60 10v500z" />
<glyph unicode="G" horiz-adv-x="590" d="M230 320v110h280v-330l60 -10v-90h-280q-106 0 -178 72.5t-72 177.5v265q0 77 54.5 131t131.5 54h264v-170h-90l-10 60h-155q-30 0 -52.5 -22t-22.5 -53v-265q0 -58 41 -99t99 -41h90v210h-160z" />
<glyph unicode="H" horiz-adv-x="650" d="M390 610v90h240v-90l-60 -10v-500l60 -10v-90h-240v90l60 10v220h-250v-220l60 -10v-90h-240v90l60 10v500l-60 10v90h240v-90l-60 -10v-170h250v170z" />
<glyph unicode="I" horiz-adv-x="280" d="M200 600v-500l60 -10v-90h-240v90l60 10v500l-60 10v90h240v-90z" />
<glyph unicode="J" horiz-adv-x="280" d="M-40 -130v110h30q39 0 64.5 28t25.5 62v530l-60 10v90h240v-90l-60 -10v-520q0 -83 -61 -146.5t-149 -63.5h-30z" />
<glyph unicode="K" horiz-adv-x="610" d="M530 600l-230 -240l225 -260l65 -10v-90h-140l-250 305v-205l60 -10v-90h-240v90l60 10v500l-60 10v90h240v-90l-60 -10v-190l180 190l-50 10v90h260v-90z" />
<glyph unicode="L" horiz-adv-x="530" d="M200 600v-490h210l10 60h90v-170h-490v90l60 10v500l-60 10v90h240v-90z" />
<glyph unicode="M" horiz-adv-x="690" d="M345 430l155 270h170v-90l-60 -10v-500l60 -10v-90h-240v90l60 10v360l-145 -250l-145 250v-360l60 -10v-90h-240v90l60 10v500l-60 10v90h170z" />
<glyph unicode="N" horiz-adv-x="660" d="M400 610v90h240v-90l-60 -10v-600h-120l-260 470v-370l60 -10v-90h-240v90l60 10v500l-60 10v90h180l260 -470v370z" />
<glyph unicode="O" horiz-adv-x="580" d="M323 0h-67q-90 0 -153 62.5t-63 151.5v301q0 76 54.5 130.5t131.5 54.5h127q77 0 132 -54.5t55 -130.5v-301q0 -89 -63.5 -151.5t-153.5 -62.5zM265 110h49q43 0 74.5 30.5t31.5 73.5v301q0 31 -22.5 53t-54.5 22h-107q-32 0 -54 -22t-22 -53v-301q0 -43 31.5 -73.5 t73.5 -30.5z" />
<glyph unicode="P" horiz-adv-x="570" d="M20 700h320q83 0 141.5 -58.5t58.5 -141.5t-58.5 -141.5t-141.5 -58.5h-140v-200l60 -10v-90h-240v90l60 10v500l-60 10v90zM420 490v20q0 34 -23.5 57t-56.5 23h-140v-180h140q33 0 56.5 23t23.5 57z" />
<glyph unicode="Q" horiz-adv-x="580" d="M323 0h-67q-90 0 -153 62.5t-63 151.5v301q0 76 54.5 130.5t131.5 54.5h127q77 0 132 -54.5t55 -130.5v-301q0 -106 -85 -170l35 -64l50 -10v-60h-130l-50 93q-18 -3 -37 -3zM265 110h37l-32 60l-50 10v60h130l48 -89q22 29 22 63v301q0 31 -22.5 53t-54.5 22h-107 q-32 0 -54 -22t-22 -53v-301q0 -43 31.5 -73.5t73.5 -30.5z" />
<glyph unicode="R" horiz-adv-x="600" d="M235 310h-35v-210l60 -10v-90h-240v90l60 10v500l-60 10v90h324q82 0 139 -57t57 -138q0 -61 -34.5 -112t-91.5 -73q23 -19 36 -53l63 -167l67 -10v-90h-160l-75 220q-16 47 -49 68.5t-61 21.5zM420 495v20q0 31 -22 53t-54 22h-144v-170h144q32 0 54 22t22 53z" />
<glyph unicode="S" horiz-adv-x="550" d="M326 295l-156 35q-61 14 -100.5 65t-39.5 120q0 77 54.5 131t132.5 54h263v-170h-90l-10 60h-163q-31 0 -49 -17t-18 -43v-30q0 -21 14.5 -37t35.5 -21l160 -35q70 -15 115 -71t45 -129q0 -86 -61 -146.5t-147 -60.5h-262v170h90l10 -60h155q39 0 67 28t28 67 q0 33 -21 57.5t-53 32.5z" />
<glyph unicode="T" horiz-adv-x="550" d="M155 0v90l60 10v490h-95l-10 -70h-90v180h510v-180h-90l-10 70h-95v-490l60 -10v-90h-240z" />
<glyph unicode="U" horiz-adv-x="650" d="M335 0h-25q-96 0 -163 68.5t-67 165.5v366l-60 10v90h240v-90l-60 -10v-376q0 -48 31.5 -81t78.5 -33h25q48 0 81.5 33t33.5 81v376l-60 10v90h240v-90l-60 -10v-366q0 -97 -69 -165.5t-166 -68.5z" />
<glyph unicode="V" horiz-adv-x="660" d="M330 180l130 420l-60 10v90h240v-90l-60 -10l-190 -600h-120l-190 600l-60 10v90h240v-90l-60 -10z" />
<glyph unicode="W" horiz-adv-x="1040" d="M330 180l130 420l-60 10v90h240v-90l-60 -10l130 -420l130 420l-60 10v90h240v-90l-60 -10l-190 -600h-120l-130 410l-130 -410h-120l-190 600l-60 10v90h240v-90l-60 -10z" />
<glyph unicode="X" horiz-adv-x="610" d="M210 100l50 -10v-90h-240v90l60 10l160 250l-160 250l-60 10v90h240v-90l-50 -10l95 -149l95 149l-50 10v90h240v-90l-60 -10l-160 -250l160 -250l60 -10v-90h-240v90l50 10l-95 148z" />
<glyph unicode="Y" horiz-adv-x="630" d="M315 415l105 185l-50 10v90h240v-90l-60 -10l-175 -300v-200l60 -10v-90h-240v90l60 10v200l-175 300l-60 10v90h240v-90l-50 -10z" />
<glyph unicode="Z" horiz-adv-x="500" d="M20 700h480l-315 -590h205l10 50h90v-160h-490l315 590h-195l-10 -60h-90v170z" />
<glyph unicode="[" horiz-adv-x="320" d="M50 -140v890h250v-110h-130v-670h130v-110h-250z" />
<glyph unicode="\" horiz-adv-x="400" d="M124 700l276 -700h-124l-276 700h124z" />
<glyph unicode="]" horiz-adv-x="320" d="M270 750v-890h-250v110h130v670h-130v110h250z" />
<glyph unicode="^" horiz-adv-x="550" d="M230 700h90l210 -440h-120l-135 290l-135 -290h-120z" />
<glyph unicode="_" horiz-adv-x="480" d="M0 -160v110h480v-110h-480z" />
<glyph unicode="`" horiz-adv-x="340" d="M40 700h130l130 -140h-120z" />
<glyph unicode="a" horiz-adv-x="500" d="M70 500h205q63 0 104 -42t41 -103v-255l60 -10v-90h-305q-69 0 -107 39t-38 106q0 49 32.5 88t82.5 52l155 39v26q0 16 -10 28t-25 12h-95l-10 -60h-90v170zM150 150q0 -16 11 -28t29 -12h110v105l-120 -28q-30 -7 -30 -37z" />
<glyph unicode="b" horiz-adv-x="510" d="M200 500h125q61 0 103 -42t42 -103v-165q0 -77 -58 -133.5t-136 -56.5h-256v90l60 10v540l-60 10v100h180v-250zM315 390h-115v-280h76q30 0 52 20t22 50v175q0 16 -10 25.5t-25 9.5z" />
<glyph unicode="c" horiz-adv-x="420" d="M300 390h-105q-15 0 -25 -9.5t-10 -25.5v-175q0 -30 22 -50t53 -20h165v-110h-165q-80 0 -137.5 51.5t-57.5 128.5v175q0 61 42 103t103 42h215v-170h-90z" />
<glyph unicode="d" horiz-adv-x="510" d="M490 0h-256q-78 0 -136 56t-58 134v165q0 61 42 103t103 42h125v150l-60 10v90h180v-650l60 -10v-90zM235 110h75v280h-115q-15 0 -25 -9.5t-10 -25.5v-170q0 -30 22 -52.5t53 -22.5z" />
<glyph unicode="e" horiz-adv-x="460" d="M275 390h-80q-15 0 -25 -10t-10 -25v-65l120 30q30 8 30 35q0 16 -10 25.5t-25 9.5zM410 0h-180q-78 0 -134 56t-56 134v165q0 61 40 103t100 42h100q66 0 108 -40.5t42 -104.5q0 -59 -36 -95.5t-89 -49.5l-145 -35q3 -31 22 -48t48 -17h180v-110z" />
<glyph unicode="f" horiz-adv-x="330" d="M200 595v-95h100v-100l-100 -10v-290l60 -10v-90h-240v90l60 10v300l-60 10v90h60v95q0 64 43.5 109.5t106.5 45.5h80v-110h-65q-19 0 -32 -13t-13 -32z" />
<glyph unicode="g" horiz-adv-x="510" d="M310 390h-115q-15 0 -25 -9.5t-10 -25.5v-175q0 -30 20 -50t50 -20h80v280zM180 500h310v-90l-60 -10v-430q0 -82 -59 -141t-141 -59h-130v110h130q34 0 57 23t23 57v40h-80q-81 0 -135.5 55.5t-54.5 134.5v165q0 63 40 104t100 41z" />
<glyph unicode="h" d="M350 100v250q0 40 -40 40h-110v-290l60 -10v-90h-240v90l60 10v550l-60 10v90h180v-250h120q62 0 106 -42.5t44 -102.5v-255l50 -10v-90h-230v90z" />
<glyph unicode="i" horiz-adv-x="280" d="M20 410v90h180v-400l60 -10v-90h-240v90l60 10v300zM80 580v120h120v-120h-120z" />
<glyph unicode="j" horiz-adv-x="260" d="M90 -40v440l-60 10v90h180v-540q0 -74 -55.5 -132t-124.5 -58h-60v110h40q31 0 55.5 23.5t24.5 56.5zM90 580v120h120v-120h-120z" />
<glyph unicode="k" horiz-adv-x="520" d="M300 260l140 -160l60 -10v-90h-120l-180 210v-110l60 -10v-90h-240v90l60 10v550l-60 10v90h180v-445l102 98l-42 7v90h240v-90l-50 -10z" />
<glyph unicode="l" horiz-adv-x="280" d="M20 660v90h180v-650l60 -10v-90h-240v90l60 10v550z" />
<glyph unicode="m" horiz-adv-x="820" d="M740 360v-260l60 -10v-90h-240v90l60 10v250q0 16 -11 28t-29 12h-30q-34 0 -57 -21t-23 -54v-215l60 -10v-90h-240v90l60 10v250q0 16 -11.5 28t-28.5 12h-30q-34 0 -57 -21t-23 -54v-215l60 -10v-90h-240v90l60 10v300l-60 10v90h150l20 -30q40 30 90 30h40 q70 0 110 -40q47 40 120 40h40q62 0 106 -40.5t44 -99.5z" />
<glyph unicode="n" horiz-adv-x="550" d="M470 360v-260l60 -10v-90h-240v90l60 10v250q0 16 -11 28t-29 12h-30q-34 0 -57 -21t-23 -54v-215l60 -10v-90h-240v90l60 10v300l-60 10v90h150l20 -30q40 30 90 30h40q62 0 106 -40.5t44 -99.5z" />
<glyph unicode="o" horiz-adv-x="480" d="M280 0h-80q-67 0 -113.5 48.5t-46.5 116.5v190q0 61 40 103t100 42h120q60 0 100 -42t40 -103v-190q0 -68 -46.5 -116.5t-113.5 -48.5zM210 110h60q22 0 36 14t14 36v195q0 15 -10 25t-25 10h-90q-15 0 -25 -10t-10 -25v-195q0 -22 14 -36t36 -14z" />
<glyph unicode="p" horiz-adv-x="510" d="M20 410v90h300q66 0 108 -44t42 -106v-160q0 -82 -58 -136t-142 -54h-70v-130l60 -10v-90h-240v90l60 10v530zM350 190v160q0 16 -11 28t-29 12h-110v-280h70q37 0 58.5 22.5t21.5 57.5z" />
<glyph unicode="q" horiz-adv-x="510" d="M490 500v-90l-60 -10v-530l60 -10v-90h-240v90l60 10v130h-70q-84 0 -142 54t-58 136v160q0 62 42 106t108 44h300zM160 350v-160q0 -35 21.5 -57.5t58.5 -22.5h70v280h-110q-18 0 -29 -12t-11 -28z" />
<glyph unicode="r" horiz-adv-x="430" d="M310 390h-30q-38 0 -59 -21t-21 -59v-210l60 -10v-90h-240v90l60 10v300l-60 10v90h150l20 -30q38 30 90 30h130v-170h-90z" />
<glyph unicode="s" horiz-adv-x="450" d="M273 179l-128 32q-50 12 -82.5 51.5t-32.5 92.5q0 63 41 104t104 41h215v-170h-90l-10 60h-105q-15 0 -25 -10t-10 -25q0 -27 25 -34l130 -36q51 -14 83 -51t32 -89q0 -60 -41 -102.5t-104 -42.5h-235v170h87l13 -60h125q15 0 25 10t10 25q0 26 -27 34z" />
<glyph unicode="t" horiz-adv-x="320" d="M70 400l-60 10v90h60l11 200h109v-200h100v-100l-100 -10v-235q0 -19 13 -32t32 -13h65v-110h-80q-63 0 -106.5 45.5t-43.5 109.5v245z" />
<glyph unicode="u" d="M70 140v260l-60 10v90h240v-90l-60 -10v-250q0 -16 11 -28t29 -12h30q34 0 57 21t23 54v215l-60 10v90h240v-90l-60 -10v-300l60 -10v-90h-150l-20 30q-40 -30 -90 -30h-40q-62 0 -106 40.5t-44 99.5z" />
<glyph unicode="v" d="M265 170l75 230l-60 10v90h240v-90l-60 -10l-140 -400h-110l-140 400l-60 10v90h240v-90l-60 -10z" />
<glyph unicode="w" horiz-adv-x="810" d="M265 170l75 230l-60 10v90h240v-90l-60 -10l75 -230l75 230l-60 10v90h240v-90l-60 -10l-140 -400h-110l-80 230l-80 -230h-110l-140 400l-60 10v90h240v-90l-60 -10z" />
<glyph unicode="x" horiz-adv-x="510" d="M310 100l-55 68l-55 -68l40 -10v-90h-220v90l50 10l120 150l-120 150l-50 10v90h220v-90l-40 -10l55 -69l55 69l-40 10v90h220v-90l-50 -10l-120 -150l120 -150l50 -10v-90h-220v90z" />
<glyph unicode="y" d="M340 -40v65q-39 -25 -85 -25h-45q-60 0 -100 42t-40 103v255l-60 10v90h240v-90l-60 -10v-255q0 -15 10 -25t25 -10h35q34 0 57 21t23 54v215l-60 10v90h240v-90l-60 -10v-440q0 -82 -58 -136t-142 -54h-130v110h130q34 0 57 23t23 57z" />
<glyph unicode="z" horiz-adv-x="431" d="M10 500h421l-237 -390h116l11 60h89v-170h-410l238 390h-128l-10 -60h-90v170z" />
<glyph unicode="{" horiz-adv-x="300" d="M280 640h-10q-31 0 -45.5 -14.5t-14.5 -35.5v-200q0 -51 -42 -85q42 -34 42 -85v-200q0 -21 14.5 -35.5t45.5 -14.5h10v-110h-10q-75 0 -127.5 46.5t-52.5 113.5v200q0 12 -9 21t-21 9h-40v110h40q12 0 21 9t9 21v200q0 67 52.5 113.5t127.5 46.5h10v-110z" />
<glyph unicode="|" horiz-adv-x="220" d="M50 0v750h120v-750h-120z" />
<glyph unicode="}" horiz-adv-x="300" d="M30 640h-10v110h10q75 0 127.5 -46.5t52.5 -113.5v-200q0 -12 9 -21t21 -9h40v-110h-40q-12 0 -21 -9t-9 -21v-200q0 -67 -52.5 -113.5t-127.5 -46.5h-10v110h10q31 0 45.5 14.5t14.5 35.5v200q0 51 42 85q-42 34 -42 85v200q0 21 -14.5 35.5t-45.5 14.5z" />
<glyph unicode="~" horiz-adv-x="520" d="M30 200q0 65 40.5 112.5t99.5 47.5q11 0 21.5 -1.5t20.5 -6t17 -7t17 -9.5l14 -12q5 -3 16 -12.5t14 -11.5q6 -5 16.5 -14.5t15.5 -13.5t13 -8t15 -4q14 0 22 14.5t8 35.5h110q0 -65 -40.5 -112.5t-99.5 -47.5q-11 0 -21.5 1.5t-20.5 6t-17 7t-17 9.5l-14 12 q-5 3 -16 12.5t-14 11.5q-6 5 -16.5 14.5t-15.5 13.5t-13 8t-15 4q-14 0 -22 -14.5t-8 -35.5h-110z" />
<glyph unicode="&#xa1;" horiz-adv-x="230" d="M50 370v130h130v-130h-130zM55 -200v510h120v-510h-120z" />
<glyph unicode="&#xa2;" horiz-adv-x="420" d="M300 390h-105q-15 0 -25 -9.5t-10 -25.5v-175q0 -30 22 -50t53 -20h165v-110h-89l-11 -90h-100v93q-68 12 -114 60.5t-46 116.5v175q0 62 41.5 103.5t106.5 41.5l12 90h100v-90h100v-170h-90z" />
<glyph unicode="&#xa3;" horiz-adv-x="520" d="M390 590h-70q-30 0 -50 -19.5t-20 -50.5v-110h240v-110h-240v-90q0 -53 -28 -100h168l10 60h90v-170h-470v110q45 0 77.5 29.5t32.5 70.5v90l-110 10v100h110v100q0 82 54 136t136 54h170v-170h-90z" />
<glyph unicode="&#xa4;" horiz-adv-x="532" d="M316 120h-100q-30 0 -60 11l-46 -56l-94 75l54 66q-14 33 -14 69v150q0 37 15 67l-55 68l94 75l56 -68q14 3 30 3h140q15 0 30 -3l56 68l94 -75l-55 -68q15 -33 15 -67v-150q0 -34 -15 -69l55 -66l-94 -75l-47 56q-28 -11 -59 -11zM330 470h-128q-26 0 -26 -27v-166 q0 -20 13 -33.5t33 -13.5h88q20 0 33 13.5t13 33.5v166q0 27 -26 27z" />
<glyph unicode="&#xa5;" horiz-adv-x="630" d="M315 415l105 185l-50 10v90h240v-90l-60 -10l-76 -130h76v-110h-140l-35 -60h175v-110h-175v-90l60 -10v-90h-240v90l60 10v90h-175v110h175l-35 60h-140v110h76l-76 130l-60 10v90h240v-90l-50 -10z" />
<glyph unicode="&#xa6;" horiz-adv-x="220" d="M50 0v300h120v-300h-120zM50 450v300h120v-300h-120z" />
<glyph unicode="&#xa7;" horiz-adv-x="490" d="M450 330q0 -59 -41 -103q21 -32 21 -82q0 -60 -44.5 -102.5t-105.5 -42.5h-230v170h90l10 -60h120q16 0 28 10t12 25q0 28 -30 36l-120 31q-53 14 -86.5 52.5t-33.5 95.5q0 52 34 94q-34 42 -34 96q0 61 43.5 105.5t106.5 44.5h210v-170h-90l-10 60h-105q-15 0 -25 -10 t-10 -25q0 -33 30 -40l140 -37q52 -14 86 -52.5t34 -95.5zM190 324l110 -29q3 1 8 3t13.5 11t8.5 21q0 28 -30 36l-110 29q-3 -1 -8 -3t-13.5 -11t-8.5 -21q0 -28 30 -36z" />
<glyph unicode="&#xa8;" horiz-adv-x="380" d="M40 560v120h120v-120h-120zM220 560v120h120v-120h-120z" />
<glyph unicode="&#xa9;" horiz-adv-x="740" d="M350 250h150v-100h-155q-60 0 -102.5 40.5t-42.5 99.5v140q0 50 35 85t85 35h180v-155h-75l-10 55h-85q-10 0 -17.5 -7t-7.5 -18v-129q0 -20 13 -33t32 -13zM440 0h-140q-108 0 -184 76.5t-76 183.5v210q0 95 63.5 162.5t156.5 67.5h220q93 0 156.5 -67.5t63.5 -162.5 v-210q0 -107 -76 -183.5t-184 -76.5zM310 110h120q63 0 106.5 43t43.5 107v210q0 55 -31.5 87.5t-78.5 32.5h-200q-47 0 -78.5 -32.5t-31.5 -87.5v-210q0 -64 43.5 -107t106.5 -43z" />
<glyph unicode="&#xaa;" horiz-adv-x="340" d="M180 610h-55l-5 -30h-70v120h135q42 0 73.5 -29.5t31.5 -70.5v-145l30 -5v-70h-190q-45 0 -72.5 28t-27.5 72q0 32 22 57t58 33l90 20q0 8 -6 14t-14 6zM120 480q0 -10 10 -10h70v37l-70 -15q-10 -2 -10 -12z" />
<glyph unicode="&#xab;" horiz-adv-x="520" d="M160 50l-140 200l140 200h130l-140 -200l140 -200h-130zM370 50l-140 200l140 200h130l-140 -200l140 -200h-130z" />
<glyph unicode="&#xac;" horiz-adv-x="560" d="M40 270v110h480v-230h-120v120h-360z" />
<glyph unicode="&#xad;" horiz-adv-x="330" d="M40 200v110h250v-110h-250z" />
<glyph unicode="&#xae;" horiz-adv-x="780" d="M480 0h-180q-108 0 -184 76.5t-76 183.5v210q0 95 63.5 162.5t156.5 67.5h260q93 0 156.5 -67.5t63.5 -162.5v-210q0 -107 -76 -183.5t-184 -76.5zM310 110h160q63 0 106.5 43t43.5 107v210q0 55 -31.5 87.5t-78.5 32.5h-240q-47 0 -78.5 -32.5t-31.5 -87.5v-210 q0 -64 43.5 -107t106.5 -43zM445 150l-35 117q-12 40 -40 40h-15v-77l40 -5v-75h-185v75l40 5v240l-40 6v74h220q50 0 85 -35t35 -85q0 -69 -63 -104q15 -14 23 -36l20 -60l40 -5v-75h-125zM445 428q0 12 -7.5 19.5t-17.5 7.5h-65v-53h65q10 0 17.5 7.5t7.5 18.5z" />
<glyph unicode="&#xaf;" horiz-adv-x="330" d="M40 560v100h250v-100h-250z" />
<glyph unicode="&#xb0;" horiz-adv-x="330" d="M30 565q0 56 39.5 95.5t95.5 39.5t95.5 -39.5t39.5 -95.5t-39.5 -95.5t-95.5 -39.5t-95.5 39.5t-39.5 95.5zM130 565q0 -14 10.5 -24.5t24.5 -10.5t24.5 10.5t10.5 24.5t-10.5 24.5t-24.5 10.5t-24.5 -10.5t-10.5 -24.5z" />
<glyph unicode="&#xb1;" horiz-adv-x="560" d="M40 0v110h480v-110h-480zM40 300v110h180v150h120v-150h180v-110h-180v-150h-120v150h-180z" />
<glyph unicode="&#xb2;" horiz-adv-x="320" d="M190 583v7q0 8 -6 14t-14 6h-55l-5 -50h-70v140h143q44 0 75.5 -31.5t31.5 -75.5v-13q0 -37 -25.5 -65.5t-64.5 -37.5l-50 -12q-20 -4 -20 -25h150v-90h-250v90q0 40 25 71t61 39l54 12q20 4 20 21z" />
<glyph unicode="&#xb3;" horiz-adv-x="295" d="M147 475h-87v90h75q8 0 14 6t6 14v5q0 8 -6 14t-14 6h-41l-4 -30h-70v120h125q47 0 78.5 -33.5t31.5 -81.5q0 -33 -20 -60q30 -23 30 -70q0 -43 -30.5 -74t-74.5 -31h-140v90h127q18 0 18 17q0 7 -5.5 12.5t-12.5 5.5z" />
<glyph unicode="&#xb4;" horiz-adv-x="340" d="M170 700h130l-140 -140h-120z" />
<glyph unicode="&#xb5;" horiz-adv-x="520" d="M50 -170v670h120v-350q0 -16 11 -28t29 -12h30q34 0 57 21t23 54v315h120v-400l60 -10v-90h-150l-20 30q-40 -30 -90 -30h-40q-21 0 -31 2l-9 -172h-110z" />
<glyph unicode="&#x3bc;" horiz-adv-x="520" d="M50 -170v670h120v-350q0 -16 11 -28t29 -12h30q34 0 57 21t23 54v315h120v-400l60 -10v-90h-150l-20 30q-40 -30 -90 -30h-40q-21 0 -31 2l-9 -172h-110z" />
<glyph unicode="&#xb6;" horiz-adv-x="560" d="M210 410h-35q-60 0 -102.5 42.5t-42.5 102.5t42.5 102.5t102.5 42.5h335v-700h-120v590h-60v-590h-120v410zM175 520h35v70h-35q-14 0 -24.5 -10.5t-10.5 -24.5t10.5 -24.5t24.5 -10.5z" />
<glyph unicode="&#xb7;" horiz-adv-x="210" d="M40 290v130h130v-130h-130z" />
<glyph unicode="&#xb8;" horiz-adv-x="290" d="M210 10l-20 -40q28 -8 44 -34t16 -61q0 -43 -33.5 -74t-76.5 -31q-58 0 -100 21v99q65 -30 90 -30q20 0 20 20t-20 20h-64l44 110h100z" />
<glyph unicode="&#xb9;" horiz-adv-x="250" d="M80 425v200l-60 -5v70l160 10v-275l50 -5v-70h-200v70z" />
<glyph unicode="&#xba;" horiz-adv-x="310" d="M165 380h-25q-48 0 -79 33.5t-31 81.5v105q0 43 28 71.5t72 28.5h47q44 0 73.5 -28.5t29.5 -71.5v-105q0 -48 -33.5 -81.5t-81.5 -33.5zM125 597v-112q0 -6 4.5 -10.5t10.5 -4.5h30q6 0 10.5 4.5t4.5 10.5v112q0 13 -13 13h-34q-13 0 -13 -13z" />
<glyph unicode="&#xbb;" horiz-adv-x="520" d="M500 250l-140 -200h-130l140 200l-140 200h130zM290 250l-140 -200h-130l140 200l-140 200h130z" />
<glyph unicode="&#xbc;" horiz-adv-x="650" d="M80 425v200l-60 -5v70l160 10v-275l50 -5v-70h-200v70zM450 190h30v50h100v-50h50v-90h-50v-25l50 -5v-70h-200v70l50 5v25h-184l139 260h110zM70 0l375 700h120l-375 -700h-120z" />
<glyph unicode="&#xbd;" horiz-adv-x="680" d="M550 233v7q0 8 -6 14t-14 6h-55l-5 -50h-70v140h143q44 0 75.5 -31.5t31.5 -75.5v-13q0 -37 -25.5 -65.5t-64.5 -37.5l-50 -12q-20 -4 -20 -25h150v-90h-250v90q0 40 25 71t61 39l54 12q20 4 20 21zM80 425v200l-60 -5v70l160 10v-275l50 -5v-70h-200v70zM70 0l375 700 h120l-375 -700h-120z" />
<glyph unicode="&#xbe;" horiz-adv-x="650" d="M147 475h-87v90h75q8 0 14 6t6 14v5q0 8 -6 14t-14 6h-41l-4 -30h-70v120h125q47 0 78.5 -33.5t31.5 -81.5q0 -33 -20 -60q30 -23 30 -70q0 -43 -30.5 -74t-74.5 -31h-140v90h127q18 0 18 17q0 7 -5.5 12.5t-12.5 5.5zM450 190h30v50h100v-50h50v-90h-50v-25l50 -5v-70 h-200v70l50 5v25h-184l139 260h110zM70 0l375 700h120l-375 -700h-120z" />
<glyph unicode="&#xbf;" horiz-adv-x="470" d="M305 370v130h130v-130h-130zM450 -200h-230q-79 0 -134.5 55t-55.5 140q0 66 36 119.5t94 65.5l110 23q18 4 29 18t11 34v55h120v-55q0 -57 -33 -99.5t-87 -55.5l-110 -26q-21 -5 -35.5 -23t-14.5 -41v-30q0 -30 20.5 -50t49.5 -20h130l10 60h90v-170z" />
<glyph unicode="&#xc0;" horiz-adv-x="670" d="M130 900h130l130 -140h-120zM470 100l-35 110h-201l-34 -110l60 -10v-90h-240v90l60 10l160 500l-60 10v90h220l190 -600l60 -10v-90h-240v90zM335 530l-66 -210h132z" />
<glyph unicode="&#xc1;" horiz-adv-x="670" d="M390 900h130l-140 -140h-120zM470 100l-35 110h-201l-34 -110l60 -10v-90h-240v90l60 10l160 500l-60 10v90h220l190 -600l60 -10v-90h-240v90zM335 530l-66 -210h132z" />
<glyph unicode="&#xc2;" horiz-adv-x="670" d="M330 940l180 -180h-120l-60 50l-60 -50h-120zM470 100l-35 110h-201l-34 -110l60 -10v-90h-240v90l60 10l160 500l-60 10v90h220l190 -600l60 -10v-90h-240v90zM335 530l-66 -210h132z" />
<glyph unicode="&#xc3;" horiz-adv-x="670" d="M170 780q0 62 30.5 96t79.5 34q39 0 77 -40q20 -20 33 -20q8 0 14 8.5t6 21.5h90q0 -62 -30.5 -96t-79.5 -34q-39 0 -77 40q-20 20 -33 20q-8 0 -14 -8.5t-6 -21.5h-90zM470 100l-35 110h-201l-34 -110l60 -10v-90h-240v90l60 10l160 500l-60 10v90h220l190 -600l60 -10 v-90h-240v90zM335 530l-66 -210h132z" />
<glyph unicode="&#xc4;" horiz-adv-x="670" d="M180 760v120h120v-120h-120zM360 760v120h120v-120h-120zM470 100l-35 110h-201l-34 -110l60 -10v-90h-240v90l60 10l160 500l-60 10v90h220l190 -600l60 -10v-90h-240v90zM335 530l-66 -210h132z" />
<glyph unicode="&#xc5;" horiz-adv-x="670" d="M470 100l-35 110h-201l-34 -110l60 -10v-90h-240v90l60 10l160 500l-60 10v90h220l190 -600l60 -10v-90h-240v90zM335 530l-66 -210h132zM210 860q0 50 35 85t85 35t85 -35t35 -85t-35 -85t-85 -35t-85 35t-35 85zM300 860q0 -13 8.5 -21.5t21.5 -8.5t21.5 8.5t8.5 21.5 t-8.5 21.5t-21.5 8.5t-21.5 -8.5t-8.5 -21.5z" />
<glyph unicode="&#xc6;" horiz-adv-x="820" d="M450 590l35 -160h175l10 40h90v-210h-90l-10 60h-150l47 -210h143l10 70h90v-180h-410v90l50 10l-23 110h-186l-41 -110l60 -10v-90h-240v90l60 10l190 500l-60 10v90h600v-170h-90l-10 60h-250zM350 530l-78 -210h122z" />
<glyph unicode="&#xc7;" horiz-adv-x="500" d="M304 110h176v-110h-115l-15 -30q28 -8 44 -34t16 -61q0 -43 -33.5 -74t-76.5 -31q-58 0 -100 21v99q65 -30 90 -30q20 0 20 20t-20 20h-64l40 101q-96 11 -161 82.5t-65 169.5v262q0 77 54.5 131t131.5 54h254v-170h-90l-10 60h-144q-31 0 -53.5 -22t-22.5 -53v-265 q0 -58 42.5 -99t101.5 -41z" />
<glyph unicode="&#xc8;" horiz-adv-x="530" d="M110 900h130l130 -140h-120zM20 610v90h490v-170h-90l-10 60h-210v-160h170l10 40h90v-210h-90l-10 60h-170v-210h210l10 70h90v-180h-490v90l60 10v500z" />
<glyph unicode="&#xc9;" horiz-adv-x="530" d="M320 900h130l-140 -140h-120zM20 610v90h490v-170h-90l-10 60h-210v-160h170l10 40h90v-210h-90l-10 60h-170v-210h210l10 70h90v-180h-490v90l60 10v500z" />
<glyph unicode="&#xca;" horiz-adv-x="530" d="M270 940l180 -180h-120l-60 50l-60 -50h-120zM20 610v90h490v-170h-90l-10 60h-210v-160h170l10 40h90v-210h-90l-10 60h-170v-210h210l10 70h90v-180h-490v90l60 10v500z" />
<glyph unicode="&#xcb;" horiz-adv-x="530" d="M125 760v120h120v-120h-120zM305 760v120h120v-120h-120zM20 610v90h490v-170h-90l-10 60h-210v-160h170l10 40h90v-210h-90l-10 60h-170v-210h210l10 70h90v-180h-490v90l60 10v500z" />
<glyph unicode="&#xcc;" horiz-adv-x="260" d="M-40 900h130l130 -140h-120zM180 600v-500l60 -10v-90h-240v90l60 10v500l-60 10v90h240v-90z" />
<glyph unicode="&#xcd;" horiz-adv-x="270" d="M180 900h130l-140 -140h-120zM200 600v-500l60 -10v-90h-240v90l60 10v500l-60 10v90h240v-90z" />
<glyph unicode="&#xce;" horiz-adv-x="290" d="M145 940l180 -180h-120l-60 50l-60 -50h-120zM205 600v-500l60 -10v-90h-240v90l60 10v500l-60 10v90h240v-90z" />
<glyph unicode="&#xcf;" horiz-adv-x="280" d="M-10 760v120h120v-120h-120zM170 760v120h120v-120h-120zM200 600v-500l60 -10v-90h-240v90l60 10v500l-60 10v90h240v-90z" />
<glyph unicode="&#xd0;" horiz-adv-x="620" d="M50 610v90h340q78 0 134 -54.5t56 -130.5v-265q0 -105 -72 -177.5t-178 -72.5h-280v90l60 10v200l-90 10v100h90v190zM380 590h-150v-180h90v-100l-90 -10v-190h90q57 0 98.5 41t41.5 99v265q0 31 -24.5 53t-55.5 22z" />
<glyph unicode="&#xd1;" horiz-adv-x="660" d="M165 780q0 62 30.5 96t79.5 34q39 0 77 -40q20 -20 33 -20q8 0 14 8.5t6 21.5h90q0 -62 -30.5 -96t-79.5 -34q-39 0 -77 40q-20 20 -33 20q-8 0 -14 -8.5t-6 -21.5h-90zM400 610v90h240v-90l-60 -10v-600h-120l-260 470v-370l60 -10v-90h-240v90l60 10v500l-60 10v90h180 l260 -470v370z" />
<glyph unicode="&#xd2;" horiz-adv-x="580" d="M120 900h130l130 -140h-120zM323 0h-67q-90 0 -153 62.5t-63 151.5v301q0 76 54.5 130.5t131.5 54.5h127q77 0 132 -54.5t55 -130.5v-301q0 -89 -63.5 -151.5t-153.5 -62.5zM265 110h49q43 0 74.5 30.5t31.5 73.5v301q0 31 -22.5 53t-54.5 22h-107q-32 0 -54 -22t-22 -53 v-301q0 -43 31.5 -73.5t73.5 -30.5z" />
<glyph unicode="&#xd3;" horiz-adv-x="580" d="M340 900h130l-140 -140h-120zM323 0h-67q-90 0 -153 62.5t-63 151.5v301q0 76 54.5 130.5t131.5 54.5h127q77 0 132 -54.5t55 -130.5v-301q0 -89 -63.5 -151.5t-153.5 -62.5zM265 110h49q43 0 74.5 30.5t31.5 73.5v301q0 31 -22.5 53t-54.5 22h-107q-32 0 -54 -22 t-22 -53v-301q0 -43 31.5 -73.5t73.5 -30.5z" />
<glyph unicode="&#xd4;" horiz-adv-x="580" d="M290 940l180 -180h-120l-60 50l-60 -50h-120zM323 0h-67q-90 0 -153 62.5t-63 151.5v301q0 76 54.5 130.5t131.5 54.5h127q77 0 132 -54.5t55 -130.5v-301q0 -89 -63.5 -151.5t-153.5 -62.5zM265 110h49q43 0 74.5 30.5t31.5 73.5v301q0 31 -22.5 53t-54.5 22h-107 q-32 0 -54 -22t-22 -53v-301q0 -43 31.5 -73.5t73.5 -30.5z" />
<glyph unicode="&#xd5;" horiz-adv-x="580" d="M125 780q0 62 30.5 96t79.5 34q39 0 77 -40q20 -20 33 -20q8 0 14 8.5t6 21.5h90q0 -62 -30.5 -96t-79.5 -34q-39 0 -77 40q-20 20 -33 20q-8 0 -14 -8.5t-6 -21.5h-90zM323 0h-67q-90 0 -153 62.5t-63 151.5v301q0 76 54.5 130.5t131.5 54.5h127q77 0 132 -54.5 t55 -130.5v-301q0 -89 -63.5 -151.5t-153.5 -62.5zM265 110h49q43 0 74.5 30.5t31.5 73.5v301q0 31 -22.5 53t-54.5 22h-107q-32 0 -54 -22t-22 -53v-301q0 -43 31.5 -73.5t73.5 -30.5z" />
<glyph unicode="&#xd6;" horiz-adv-x="580" d="M140 760v120h120v-120h-120zM320 760v120h120v-120h-120zM323 0h-67q-90 0 -153 62.5t-63 151.5v301q0 76 54.5 130.5t131.5 54.5h127q77 0 132 -54.5t55 -130.5v-301q0 -89 -63.5 -151.5t-153.5 -62.5zM265 110h49q43 0 74.5 30.5t31.5 73.5v301q0 31 -22.5 53t-54.5 22 h-107q-32 0 -54 -22t-22 -53v-301q0 -43 31.5 -73.5t73.5 -30.5z" />
<glyph unicode="&#xd7;" horiz-adv-x="560" d="M530 415l-165 -165l165 -165l-85 -85l-165 165l-165 -165l-85 85l165 165l-165 165l85 85l165 -165l165 165z" />
<glyph unicode="&#xd8;" horiz-adv-x="580" d="M323 0h-67q-35 0 -60 8l-31 -68h-125l59 126q-59 62 -59 148v301q0 76 54.5 130.5t131.5 54.5h127q19 0 41 -5l26 55h120l-51 -109q51 -53 51 -126v-301q0 -89 -63.5 -151.5t-153.5 -62.5zM160 214q0 -11 1 -16l184 392h-109q-32 0 -54 -22t-22 -53v-301zM265 110h49 q43 0 74.5 30.5t31.5 73.5v277l-176 -379q7 -2 21 -2z" />
<glyph unicode="&#xd9;" horiz-adv-x="650" d="M150 900h130l130 -140h-120zM335 0h-25q-96 0 -163 68.5t-67 165.5v366l-60 10v90h240v-90l-60 -10v-376q0 -48 31.5 -81t78.5 -33h25q48 0 81.5 33t33.5 81v376l-60 10v90h240v-90l-60 -10v-366q0 -97 -69 -165.5t-166 -68.5z" />
<glyph unicode="&#xda;" horiz-adv-x="650" d="M370 900h130l-140 -140h-120zM335 0h-25q-96 0 -163 68.5t-67 165.5v366l-60 10v90h240v-90l-60 -10v-376q0 -48 31.5 -81t78.5 -33h25q48 0 81.5 33t33.5 81v376l-60 10v90h240v-90l-60 -10v-366q0 -97 -69 -165.5t-166 -68.5z" />
<glyph unicode="&#xdb;" horiz-adv-x="650" d="M325 940l180 -180h-120l-60 50l-60 -50h-120zM335 0h-25q-96 0 -163 68.5t-67 165.5v366l-60 10v90h240v-90l-60 -10v-376q0 -48 31.5 -81t78.5 -33h25q48 0 81.5 33t33.5 81v376l-60 10v90h240v-90l-60 -10v-366q0 -97 -69 -165.5t-166 -68.5z" />
<glyph unicode="&#xdc;" horiz-adv-x="650" d="M175 760v120h120v-120h-120zM355 760v120h120v-120h-120zM335 0h-25q-96 0 -163 68.5t-67 165.5v366l-60 10v90h240v-90l-60 -10v-376q0 -48 31.5 -81t78.5 -33h25q48 0 81.5 33t33.5 81v376l-60 10v90h240v-90l-60 -10v-366q0 -97 -69 -165.5t-166 -68.5z" />
<glyph unicode="&#xdd;" horiz-adv-x="630" d="M380 900h130l-140 -140h-120zM315 415l105 185l-50 10v90h240v-90l-60 -10l-175 -300v-200l60 -10v-90h-240v90l60 10v200l-175 300l-60 10v90h240v-90l-50 -10z" />
<glyph unicode="&#xde;" horiz-adv-x="560" d="M200 600v-50h130q82 0 141 -57.5t59 -137.5v-10q0 -80 -59 -137.5t-141 -57.5h-130v-50l60 -10v-90h-240v90l60 10v500l-60 10v90h240v-90zM330 440h-130v-180h130q32 0 56 21.5t24 53.5v30q0 32 -24 53.5t-56 21.5z" />
<glyph unicode="&#xdf;" horiz-adv-x="560" d="M350 220q-49 16 -79.5 52.5t-30.5 87.5q0 53 29 90t81 48v102q0 17 -11.5 28.5t-28.5 11.5h-70q-17 0 -28.5 -11.5t-11.5 -28.5v-500l50 -10v-90h-230v90l60 10v300l-60 10v90h60v100q0 59 42.5 104.5t107.5 45.5h90q65 0 107.5 -45.5t42.5 -104.5v-210h-80 q-13 0 -21.5 -8.5t-8.5 -21.5q0 -23 50 -40q55 -19 87.5 -60.5t32.5 -99.5q0 -68 -46 -114t-114 -46h-80v110h70q22 0 36 14t14 36q0 23 -13.5 36.5t-46.5 23.5z" />
<glyph unicode="&#xe0;" horiz-adv-x="500" d="M70 500h205q63 0 104 -42t41 -103v-255l60 -10v-90h-305q-69 0 -107 39t-38 106q0 49 32.5 88t82.5 52l155 39v26q0 16 -10 28t-25 12h-95l-10 -60h-90v170zM150 150q0 -16 11 -28t29 -12h110v105l-120 -28q-30 -7 -30 -37zM75 700h130l130 -140h-120z" />
<glyph unicode="&#xe1;" horiz-adv-x="500" d="M290 700h130l-140 -140h-120zM70 500h205q63 0 104 -42t41 -103v-255l60 -10v-90h-305q-69 0 -107 39t-38 106q0 49 32.5 88t82.5 52l155 39v26q0 16 -10 28t-25 12h-95l-10 -60h-90v170zM150 150q0 -16 11 -28t29 -12h110v105l-120 -28q-30 -7 -30 -37z" />
<glyph unicode="&#xe2;" horiz-adv-x="500" d="M240 740l180 -180h-120l-60 50l-60 -50h-120zM70 500h205q63 0 104 -42t41 -103v-255l60 -10v-90h-305q-69 0 -107 39t-38 106q0 49 32.5 88t82.5 52l155 39v26q0 16 -10 28t-25 12h-95l-10 -60h-90v170zM150 150q0 -16 11 -28t29 -12h110v105l-120 -28q-30 -7 -30 -37z " />
<glyph unicode="&#xe3;" horiz-adv-x="500" d="M80 580q0 62 30.5 96t79.5 34q39 0 77 -40q20 -20 33 -20q8 0 14 8.5t6 21.5h90q0 -62 -30.5 -96t-79.5 -34q-39 0 -77 40q-20 20 -33 20q-8 0 -14 -8.5t-6 -21.5h-90zM70 500h205q63 0 104 -42t41 -103v-255l60 -10v-90h-305q-69 0 -107 39t-38 106q0 49 32.5 88 t82.5 52l155 39v26q0 16 -10 28t-25 12h-95l-10 -60h-90v170zM150 150q0 -16 11 -28t29 -12h110v105l-120 -28q-30 -7 -30 -37z" />
<glyph unicode="&#xe4;" horiz-adv-x="500" d="M90 560v120h120v-120h-120zM270 560v120h120v-120h-120zM70 500h205q63 0 104 -42t41 -103v-255l60 -10v-90h-305q-69 0 -107 39t-38 106q0 49 32.5 88t82.5 52l155 39v26q0 16 -10 28t-25 12h-95l-10 -60h-90v170zM150 150q0 -16 11 -28t29 -12h110v105l-120 -28 q-30 -7 -30 -37z" />
<glyph unicode="&#xe5;" horiz-adv-x="500" d="M70 500h205q63 0 104 -42t41 -103v-255l60 -10v-90h-305q-69 0 -107 39t-38 106q0 49 32.5 88t82.5 52l155 39v26q0 16 -10 28t-25 12h-95l-10 -60h-90v170zM150 150q0 -16 11 -28t29 -12h110v105l-120 -28q-30 -7 -30 -37zM115 660q0 50 35.5 85t84.5 35t84.5 -35 t35.5 -85t-35.5 -85t-84.5 -35t-84.5 35t-35.5 85zM205 660q0 -13 8.5 -21.5t21.5 -8.5t21.5 8.5t8.5 21.5t-8.5 21.5t-21.5 8.5t-21.5 -8.5t-8.5 -21.5z" />
<glyph unicode="&#xe6;" horiz-adv-x="720" d="M670 0h-180q-48 0 -93 24l-7 -24h-215q-69 0 -107 39t-38 106q0 49 32.5 88t82.5 52l155 39v26q0 16 -10 28t-25 12h-95l-10 -60h-90v170h205q48 0 84 -25q36 25 81 25h100q66 0 108 -40.5t42 -104.5q0 -59 -36 -95.5t-89 -49.5l-145 -35q3 -31 22 -48t48 -17h180v-110z M150 150q0 -16 11 -28t29 -12h110v105l-120 -28q-30 -7 -30 -37zM535 390h-80q-15 0 -25 -10t-10 -25v-65l120 30q30 8 30 35q0 16 -10 25.5t-25 9.5z" />
<glyph unicode="&#xe7;" horiz-adv-x="420" d="M300 390h-105q-15 0 -25 -9.5t-10 -25.5v-175q0 -30 22 -50t53 -20h165v-110h-95l-15 -30q28 -8 44 -34t16 -61q0 -43 -33.5 -74t-76.5 -31q-58 0 -100 21v99q65 -30 90 -30q20 0 20 20t-20 20h-64l40 102q-70 9 -118 58.5t-48 119.5v175q0 61 42 103t103 42h215v-170 h-90z" />
<glyph unicode="&#xe8;" horiz-adv-x="460" d="M275 390h-80q-15 0 -25 -10t-10 -25v-65l120 30q30 8 30 35q0 16 -10 25.5t-25 9.5zM410 0h-180q-78 0 -134 56t-56 134v165q0 61 40 103t100 42h100q66 0 108 -40.5t42 -104.5q0 -59 -36 -95.5t-89 -49.5l-145 -35q3 -31 22 -48t48 -17h180v-110zM70 700h130l130 -140 h-120z" />
<glyph unicode="&#xe9;" horiz-adv-x="460" d="M280 700h130l-140 -140h-120zM275 390h-80q-15 0 -25 -10t-10 -25v-65l120 30q30 8 30 35q0 16 -10 25.5t-25 9.5zM410 0h-180q-78 0 -134 56t-56 134v165q0 61 40 103t100 42h100q66 0 108 -40.5t42 -104.5q0 -59 -36 -95.5t-89 -49.5l-145 -35q3 -31 22 -48t48 -17h180 v-110z" />
<glyph unicode="&#xea;" horiz-adv-x="460" d="M230 740l180 -180h-120l-60 50l-60 -50h-120zM275 390h-80q-15 0 -25 -10t-10 -25v-65l120 30q30 8 30 35q0 16 -10 25.5t-25 9.5zM410 0h-180q-78 0 -134 56t-56 134v165q0 61 40 103t100 42h100q66 0 108 -40.5t42 -104.5q0 -59 -36 -95.5t-89 -49.5l-145 -35 q3 -31 22 -48t48 -17h180v-110z" />
<glyph unicode="&#xeb;" horiz-adv-x="460" d="M80 560v120h120v-120h-120zM260 560v120h120v-120h-120zM275 390h-80q-15 0 -25 -10t-10 -25v-65l120 30q30 8 30 35q0 16 -10 25.5t-25 9.5zM410 0h-180q-78 0 -134 56t-56 134v165q0 61 40 103t100 42h100q66 0 108 -40.5t42 -104.5q0 -59 -36 -95.5t-89 -49.5 l-145 -35q3 -31 22 -48t48 -17h180v-110z" />
<glyph unicode="&#xec;" horiz-adv-x="260" d="M0 410v90h180v-400l60 -10v-90h-240v90l60 10v300zM0 700h80l130 -140h-120l-90 90v50z" />
<glyph unicode="&#xed;" horiz-adv-x="260" d="M20 410v90h180v-400l60 -10v-90h-240v90l60 10v300zM180 700h80v-50l-90 -90h-120z" />
<glyph unicode="&#xee;" horiz-adv-x="280" d="M20 410v90h180v-400l60 -10v-90h-240v90l60 10v300zM140 740l120 -120v-60h-60l-60 50l-60 -50h-60v60z" />
<glyph unicode="&#xef;" horiz-adv-x="270" d="M150 560v120h110v-120h-110zM10 410v90h180v-400l60 -10v-90h-240v90l60 10v300zM0 560v120h110v-120h-110z" />
<glyph unicode="&#xf0;" horiz-adv-x="490" d="M230 490v110l45 21q-25 19 -55 19h-40l-10 -60h-90v170h140q102 0 169 -74l91 44v-110l-41 -20q11 -35 11 -70v-330q0 -78 -55.5 -134t-134.5 -56h-30q-78 0 -134 56t-56 134v117q0 68 48 115.5t116 47.5h76q10 0 50 -10v60q0 5 -2 17zM330 180v134q0 20 -13 33t-33 13 h-78q-19 0 -32.5 -13t-13.5 -33v-134q0 -30 20.5 -50t49.5 -20h30q29 0 49.5 20t20.5 50z" />
<glyph unicode="&#xf1;" horiz-adv-x="550" d="M110 580q0 62 30.5 96t79.5 34q39 0 77 -40q20 -20 33 -20q8 0 14 8.5t6 21.5h90q0 -62 -30.5 -96t-79.5 -34q-39 0 -77 40q-20 20 -33 20q-8 0 -14 -8.5t-6 -21.5h-90zM470 360v-260l60 -10v-90h-240v90l60 10v250q0 16 -11 28t-29 12h-30q-34 0 -57 -21t-23 -54v-215 l60 -10v-90h-240v90l60 10v300l-60 10v90h150l20 -30q40 30 90 30h40q62 0 106 -40.5t44 -99.5z" />
<glyph unicode="&#xf2;" horiz-adv-x="480" d="M280 0h-80q-67 0 -113.5 48.5t-46.5 116.5v190q0 61 40 103t100 42h120q60 0 100 -42t40 -103v-190q0 -68 -46.5 -116.5t-113.5 -48.5zM210 110h60q22 0 36 14t14 36v195q0 15 -10 25t-25 10h-90q-15 0 -25 -10t-10 -25v-195q0 -22 14 -36t36 -14zM60 700h130l130 -140 h-120z" />
<glyph unicode="&#xf3;" horiz-adv-x="480" d="M290 700h130l-140 -140h-120zM280 0h-80q-67 0 -113.5 48.5t-46.5 116.5v190q0 61 40 103t100 42h120q60 0 100 -42t40 -103v-190q0 -68 -46.5 -116.5t-113.5 -48.5zM210 110h60q22 0 36 14t14 36v195q0 15 -10 25t-25 10h-90q-15 0 -25 -10t-10 -25v-195q0 -22 14 -36 t36 -14z" />
<glyph unicode="&#xf4;" horiz-adv-x="480" d="M240 740l180 -180h-120l-60 50l-60 -50h-120zM280 0h-80q-67 0 -113.5 48.5t-46.5 116.5v190q0 61 40 103t100 42h120q60 0 100 -42t40 -103v-190q0 -68 -46.5 -116.5t-113.5 -48.5zM210 110h60q22 0 36 14t14 36v195q0 15 -10 25t-25 10h-90q-15 0 -25 -10t-10 -25v-195 q0 -22 14 -36t36 -14z" />
<glyph unicode="&#xf5;" horiz-adv-x="480" d="M75 580q0 62 30.5 96t79.5 34q39 0 77 -40q20 -20 33 -20q8 0 14 8.5t6 21.5h90q0 -62 -30.5 -96t-79.5 -34q-39 0 -77 40q-20 20 -33 20q-8 0 -14 -8.5t-6 -21.5h-90zM280 0h-80q-67 0 -113.5 48.5t-46.5 116.5v190q0 61 40 103t100 42h120q60 0 100 -42t40 -103v-190 q0 -68 -46.5 -116.5t-113.5 -48.5zM210 110h60q22 0 36 14t14 36v195q0 15 -10 25t-25 10h-90q-15 0 -25 -10t-10 -25v-195q0 -22 14 -36t36 -14z" />
<glyph unicode="&#xf6;" horiz-adv-x="480" d="M90 560v120h120v-120h-120zM270 560v120h120v-120h-120zM280 0h-80q-67 0 -113.5 48.5t-46.5 116.5v190q0 61 40 103t100 42h120q60 0 100 -42t40 -103v-190q0 -68 -46.5 -116.5t-113.5 -48.5zM210 110h60q22 0 36 14t14 36v195q0 15 -10 25t-25 10h-90q-15 0 -25 -10 t-10 -25v-195q0 -22 14 -36t36 -14z" />
<glyph unicode="&#xf7;" horiz-adv-x="550" d="M210 20v130h130v-130h-130zM210 360v130h130v-130h-130zM40 200v110h470v-110h-470z" />
<glyph unicode="&#xf8;" horiz-adv-x="490" d="M30 -60l59 116q-39 47 -39 109v190q0 61 40 103t100 42h124l26 50h120l-48 -94q38 -41 38 -101v-190q0 -68 -46.5 -116.5t-113.5 -48.5h-80q-11 0 -29 2l-31 -62h-120zM280 110q22 0 36 14t14 36v134l-94 -184h44zM170 355v-140l89 175h-54q-15 0 -25 -10t-10 -25z" />
<glyph unicode="&#xf9;" d="M70 140v260l-60 10v90h240v-90l-60 -10v-250q0 -16 11 -28t29 -12h30q34 0 57 21t23 54v215l-60 10v90h240v-90l-60 -10v-300l60 -10v-90h-150l-20 30q-40 -30 -90 -30h-40q-62 0 -106 40.5t-44 99.5zM80 700h130l130 -140h-120z" />
<glyph unicode="&#xfa;" d="M320 700h130l-140 -140h-120zM70 140v260l-60 10v90h240v-90l-60 -10v-250q0 -16 11 -28t29 -12h30q34 0 57 21t23 54v215l-60 10v90h240v-90l-60 -10v-300l60 -10v-90h-150l-20 30q-40 -30 -90 -30h-40q-62 0 -106 40.5t-44 99.5z" />
<glyph unicode="&#xfb;" d="M265 740l180 -180h-120l-60 50l-60 -50h-120zM70 140v260l-60 10v90h240v-90l-60 -10v-250q0 -16 11 -28t29 -12h30q34 0 57 21t23 54v215l-60 10v90h240v-90l-60 -10v-300l60 -10v-90h-150l-20 30q-40 -30 -90 -30h-40q-62 0 -106 40.5t-44 99.5z" />
<glyph unicode="&#xfc;" d="M115 560v120h120v-120h-120zM295 560v120h120v-120h-120zM70 140v260l-60 10v90h240v-90l-60 -10v-250q0 -16 11 -28t29 -12h30q34 0 57 21t23 54v215l-60 10v90h240v-90l-60 -10v-300l60 -10v-90h-150l-20 30q-40 -30 -90 -30h-40q-62 0 -106 40.5t-44 99.5z" />
<glyph unicode="&#xfd;" d="M320 700h130l-140 -140h-120zM340 -40v65q-39 -25 -85 -25h-45q-60 0 -100 42t-40 103v255l-60 10v90h240v-90l-60 -10v-255q0 -15 10 -25t25 -10h35q34 0 57 21t23 54v215l-60 10v90h240v-90l-60 -10v-440q0 -82 -58 -136t-142 -54h-130v110h130q34 0 57 23t23 57z" />
<glyph unicode="&#xfe;" horiz-adv-x="520" d="M320 0h-70q-13 0 -25.5 2.5t-18.5 5.5l-6 2v-140l60 -10v-90h-240v90l60 10v784l-60 9v87h180v-260q15 10 35 10h105q60 0 100 -42t40 -103v-190q0 -68 -46.5 -116.5t-113.5 -48.5zM250 110h60q22 0 36 14t14 36v195q0 15 -10 25t-25 10h-90q-14 0 -23.5 -8.5 t-11.5 -22.5v-199q0 -22 14 -36t36 -14z" />
<glyph unicode="&#xff;" d="M115 560v120h120v-120h-120zM295 560v120h120v-120h-120zM340 -40v65q-39 -25 -85 -25h-45q-60 0 -100 42t-40 103v255l-60 10v90h240v-90l-60 -10v-255q0 -15 10 -25t25 -10h35q34 0 57 21t23 54v215l-60 10v90h240v-90l-60 -10v-440q0 -82 -58 -136t-142 -54h-130v110 h130q34 0 57 23t23 57z" />
<glyph unicode="&#x152;" horiz-adv-x="860" d="M840 0h-584q-90 0 -153 62.5t-63 151.5v301q0 76 54.5 130.5t131.5 54.5h614v-170h-90l-10 60h-210v-160h170l10 40h90v-210h-90l-10 60h-170v-210h210l10 70h90v-180zM265 110h39q42 0 73 28.5t33 70.5v306q0 31 -22.5 53t-54.5 22h-97q-32 0 -54 -22t-22 -53v-301 q0 -43 31.5 -73.5t73.5 -30.5z" />
<glyph unicode="&#x153;" horiz-adv-x="740" d="M690 0h-180q-69 0 -121 44q-47 -44 -109 -44h-80q-67 0 -113.5 48.5t-46.5 116.5v190q0 61 40 103t100 42h120q46 0 80 -25q34 25 80 25h100q66 0 108 -40.5t42 -104.5q0 -59 -36 -95.5t-89 -49.5l-145 -35q3 -31 22 -48t48 -17h180v-110zM210 110h60q22 0 36 14t14 36 v195q0 15 -10 25t-25 10h-90q-15 0 -25 -10t-10 -25v-195q0 -22 14 -36t36 -14zM555 390h-80q-14 0 -23.5 -8.5t-11.5 -22.5v-69l120 30q30 8 30 35q0 16 -10 25.5t-25 9.5z" />
<glyph unicode="&#x178;" horiz-adv-x="630" d="M165 760v120h120v-120h-120zM345 760v120h120v-120h-120zM315 415l105 185l-50 10v90h240v-90l-60 -10l-175 -300v-200l60 -10v-90h-240v90l60 10v200l-175 300l-60 10v90h240v-90l-50 -10z" />
<glyph unicode="&#x2c6;" horiz-adv-x="440" d="M220 740l180 -180h-120l-60 50l-60 -50h-120z" />
<glyph unicode="&#x2dc;" horiz-adv-x="410" d="M40 580q0 62 30.5 96t79.5 34q39 0 77 -40q20 -20 33 -20q8 0 14 8.5t6 21.5h90q0 -62 -30.5 -96t-79.5 -34q-39 0 -77 40q-20 20 -33 20q-8 0 -14 -8.5t-6 -21.5h-90z" />
<glyph unicode="&#x2000;" horiz-adv-x="490" />
<glyph unicode="&#x2001;" horiz-adv-x="980" />
<glyph unicode="&#x2002;" horiz-adv-x="490" />
<glyph unicode="&#x2003;" horiz-adv-x="980" />
<glyph unicode="&#x2004;" horiz-adv-x="326" />
<glyph unicode="&#x2005;" horiz-adv-x="245" />
<glyph unicode="&#x2006;" horiz-adv-x="163" />
<glyph unicode="&#x2007;" horiz-adv-x="163" />
<glyph unicode="&#x2008;" horiz-adv-x="122" />
<glyph unicode="&#x2009;" horiz-adv-x="196" />
<glyph unicode="&#x200a;" horiz-adv-x="54" />
<glyph unicode="&#x2010;" horiz-adv-x="330" d="M40 200v110h250v-110h-250z" />
<glyph unicode="&#x2011;" horiz-adv-x="330" d="M40 200v110h250v-110h-250z" />
<glyph unicode="&#x2013;" horiz-adv-x="430" d="M40 200v110h350v-110h-350z" />
<glyph unicode="&#x2014;" horiz-adv-x="780" d="M40 200v110h700v-110h-700z" />
<glyph unicode="&#x2018;" horiz-adv-x="210" d="M170 700v-220h-130l20 220h110z" />
<glyph unicode="&#x2019;" horiz-adv-x="210" d="M40 480v220h130l-20 -220h-110z" />
<glyph unicode="&#x201a;" horiz-adv-x="210" d="M40 -110v220h130l-20 -220h-110z" />
<glyph unicode="&#x201c;" horiz-adv-x="400" d="M170 700v-220h-130l20 220h110zM360 700v-220h-130l20 220h110z" />
<glyph unicode="&#x201d;" horiz-adv-x="400" d="M230 480v220h130l-20 -220h-110zM40 480v220h130l-20 -220h-110z" />
<glyph unicode="&#x201e;" horiz-adv-x="400" d="M40 -110v220h130l-20 -220h-110zM230 -110v220h130l-20 -220h-110z" />
<glyph unicode="&#x2022;" horiz-adv-x="320" d="M30 350q0 54 38 92t92 38t92 -38t38 -92t-38 -92t-92 -38t-92 38t-38 92z" />
<glyph unicode="&#x2026;" horiz-adv-x="690" d="M40 0v130h130v-130h-130zM280 0v130h130v-130h-130zM520 0v130h130v-130h-130z" />
<glyph unicode="&#x202f;" horiz-adv-x="196" />
<glyph unicode="&#x2039;" horiz-adv-x="310" d="M160 50l-140 200l140 200h130l-140 -200l140 -200h-130z" />
<glyph unicode="&#x203a;" horiz-adv-x="310" d="M290 250l-140 -200h-130l140 200l-140 200h130z" />
<glyph unicode="&#x205f;" horiz-adv-x="245" />
<glyph unicode="&#x20ac;" d="M20 480h70v35q0 77 54.5 131t131.5 54h234v-170h-90l-10 60h-124q-31 0 -53.5 -22t-22.5 -53v-35h300v-110h-300v-60h300v-110h-291q16 -40 53 -65t82 -25h156v-110h-166q-91 0 -160.5 56.5t-88.5 143.5h-75v100l70 10v60l-70 10v100z" />
<glyph unicode="&#x2122;" horiz-adv-x="780" d="M550 430l-60 110v-125l40 -5v-60h-190v60l50 5v215l-50 5v65h160l50 -95l50 95h160v-65l-50 -5v-215l50 -5v-60h-190v60l40 5v125zM70 350v60l50 5v205h-35l-5 -50h-60v130h300v-130h-60l-5 50h-35v-205l50 -5v-60h-200z" />
<glyph horiz-adv-x="200" />
</font>
</defs>
</svg>
